<svg width="140" height="52" viewBox="0 0 140 52" fill="none" xmlns="http://www.w3.org/2000/svg">
<path d="M2.01884 15.593C3.36474 16.984 4.97981 18.1221 6.19112 19.6397C16.5545 33.1707 31.3594 39.8731 47.7793 43.5404C53.432 44.805 59.8923 44.6785 65.6797 43.5404C82.2342 40.5054 97.3082 34.056 110.363 23.9393C114.132 21.0307 117.362 17.3634 120.054 13.1903C118.573 13.6961 116.958 14.2019 115.478 14.8342C111.171 16.6046 106.864 18.5015 102.423 20.019C100.538 20.6513 98.2504 20.6513 96.0969 20.5249C95.2894 20.5249 94.0781 19.3867 93.9435 18.628C93.8089 17.8692 94.6164 16.4782 95.2894 16.3517C106.729 13.0638 116.689 6.74085 127.053 1.30312C130.686 -0.593759 132.974 -0.0879238 134.59 3.32646C138.493 11.7992 140.242 20.7778 139.973 30.0093C139.973 30.2622 139.435 30.6416 138.627 31.4003C130.686 28.6182 133.109 20.5249 129.206 14.0755C128.264 15.593 127.591 16.8576 126.783 17.8692C109.825 37.4703 87.3486 47.84 61.2382 51.6337C57.3351 52.266 53.0283 52.0131 48.9906 51.3808C34.1857 48.9781 20.996 43.161 10.0942 33.4237C6.59489 30.2622 4.03769 26.0891 1.48048 22.1688C0.403768 20.6513 0.403769 18.5015 0 16.7311C0.672948 16.3517 1.3459 15.9723 2.01884 15.593Z" fill="black"/>
</svg>
